<?xml version="1.0" encoding="UTF-8"?>
<svg width="200" height="200" viewBox="0 0 200 200" fill="none" xmlns="http://www.w3.org/2000/svg">
  <!-- Soccer Players -->
  <g transform="translate(40, 60)">
    <!-- Player 1 -->
    <path d="M30 40C41.0457 40 50 31.0457 50 20C50 8.9543 41.0457 0 30 0C18.9543 0 10 8.9543 10 20C10 31.0457 18.9543 40 30 40Z" fill="#A78BFA"/>
    <path d="M20 50L40 50C45.5228 50 50 54.4772 50 60V80H10V60C10 54.4772 14.4772 50 20 50Z" fill="#A78BFA"/>
    
    <!-- Player 2 -->
    <path d="M90 40C101.046 40 110 31.0457 110 20C110 8.9543 101.046 0 90 0C78.9543 0 70 8.9543 70 20C70 31.0457 78.9543 40 90 40Z" fill="#A78BFA"/>
    <path d="M80 50L100 50C105.523 50 110 54.4772 110 60V80H70V60C70 54.4772 74.4772 50 80 50Z" fill="#A78BFA"/>
  </g>
  
  <!-- Soccer Ball -->
  <circle cx="100" cy="140" r="15" fill="#000000"/>
  <path d="M90 140L110 140M100 130L100 150" stroke="#FFFFFF" stroke-width="2"/>
  
  <!-- Decorative Dots -->
  <circle cx="40" cy="40" r="4" fill="#A78BFA"/>
  <circle cx="160" cy="160" r="4" fill="#A78BFA"/>
  <circle cx="40" cy="160" r="4" fill="#A78BFA"/>
  <circle cx="160" cy="40" r="4" fill="#A78BFA"/>
</svg>
