<?xml version="1.0" encoding="UTF-8"?>
<svg id="Layer_1" xmlns="http://www.w3.org/2000/svg" version="1.1" viewBox="0 0 841.89 595.28">
  <!-- Generator: Adobe Illustrator 29.5.1, SVG Export Plug-In . SVG Version: 2.1.0 Build 141)  -->
  <defs>
    <style>
      .st0 {
        fill: #fff;
      }
    </style>
  </defs>
  <path class="st0" d="M557.75,258.28c4.68,0,6.75,2.67,6.12,6.06-.47,2.86-2.57,4.62-4.36,5.18v.13c2.2.72,3.39,2.61,2.86,5.71-.66,3.74-3.8,6.5-8.6,6.5-4.52,0-7.53-2.26-6.88-7.06h4.27c-.25,1.98.78,3.39,3.14,3.39,2.2,0,3.61-1.38,3.92-3.2.44-2.57-1.04-3.52-4.3-3.52h-.91l.66-3.61h.91c2.57,0,4.55-.72,4.96-2.98.31-1.79-.57-2.86-2.57-2.86-2.13,0-3.33,1.38-3.74,2.83h-4.3c.97-4.24,4.43-6.56,8.82-6.56Z"/>
  <g>
    <path class="st0" d="M293.03,261.61l-6.7,38.09h14.82l-1.22,6.9h-23.91l7.99-44.99h9.02Z"/>
    <path class="st0" d="M311.91,270.89h9.09l-6.32,35.71h-9.09l6.32-35.71ZM312.62,261.35c.52-2.96,3.29-5.29,6.51-5.29s5.09,2.32,4.58,5.29c-.52,2.96-3.29,5.29-6.45,5.29s-5.16-2.32-4.64-5.29Z"/>
    <path class="st0" d="M335.7,270.89l4.19,27.39,13.86-27.39h9.73l-19.53,35.71h-11.09l-6.83-35.71h9.67Z"/>
    <path class="st0" d="M377.72,307.18c-10.38,0-16.76-7.22-14.7-18.43,2-11.28,10.57-18.43,21.14-18.43s16.37,7.03,14.5,17.6c-.19,1.03-.45,2.19-.84,3.35h-26.1c-.58,5.41,2.51,8.44,7.09,8.44,3.87,0,6.38-1.93,7.86-4.32h9.73c-3.03,6.57-9.93,11.79-18.69,11.79ZM372.69,285.78h17.02c.77-5.09-2.45-8.06-7.09-8.06s-8.44,2.96-9.93,8.06Z"/>
    <path class="st0" d="M421.54,289.32h-7.54l-3.03,17.27h-9.09l7.99-44.99h16.56c10.83,0,15.08,6.12,13.73,13.92-1.16,6.83-7.03,13.79-18.63,13.79ZM422.45,282.23c5.09,0,7.8-2.71,8.51-6.7.71-4.12-1.03-6.77-6.19-6.77h-7.09l-2.38,13.47h7.15Z"/>
    <path class="st0" d="M449.51,258.9h9.09l-8.44,47.7h-9.09l8.44-47.7Z"/>
    <path class="st0" d="M479.42,270.31c5.74,0,9.22,2.71,10.76,5.67l.9-5.09h9.09l-6.32,35.71h-9.09l.97-5.22c-2.64,3.09-7.22,5.8-12.89,5.8-9.02,0-14.95-7.41-12.96-18.56,1.93-11.15,10.44-18.3,19.53-18.3ZM480.39,278.24c-4.83,0-10.05,3.61-11.28,10.38-1.16,6.77,2.71,10.63,7.54,10.63s10.12-3.74,11.28-10.51c1.22-6.77-2.64-10.51-7.54-10.51Z"/>
    <path class="st0" d="M531.24,286.87c.97-5.74-1.61-8.83-6.38-8.83s-8.38,2.9-9.54,8.38l-3.55,20.17h-9.09l6.32-35.71h9.09l-.77,4.38c2.84-2.96,7.03-4.9,11.54-4.9,8.38,0,13.34,5.41,11.6,15.28l-3.74,20.95h-8.96l3.48-19.72Z"/>
  </g>
</svg>