<?xml version="1.0" encoding="UTF-8"?>
<svg id="Layer_1" xmlns="http://www.w3.org/2000/svg" version="1.1" viewBox="0 0 841.89 595.28">
  <!-- Generator: Adobe Illustrator 29.5.1, SVG Export Plug-In . SVG Version: 2.1.0 Build 141)  -->
  <defs>
    <style>
      .st0 {
        isolation: isolate;
      }

      .st1 {
        fill: #fff;
      }
    </style>
  </defs>
  <path class="st1" d="M557.75,258.28c4.68,0,6.75,2.67,6.12,6.06-.47,2.86-2.57,4.62-4.36,5.18v.13c2.2.72,3.39,2.61,2.86,5.71-.66,3.74-3.8,6.5-8.6,6.5-4.52,0-7.53-2.26-6.88-7.06h4.27c-.25,1.98.78,3.39,3.14,3.39,2.2,0,3.61-1.38,3.92-3.2.44-2.57-1.04-3.52-4.3-3.52h-.91l.66-3.61h.91c2.57,0,4.55-.72,4.96-2.98.31-1.79-.57-2.86-2.57-2.86-2.13,0-3.33,1.38-3.74,2.83h-4.3c.97-4.24,4.43-6.56,8.82-6.56h0Z"/>
  <g>
    <path class="st1" d="M293.03,261.61l-6.7,38.09h14.82l-1.22,6.9h-23.91l7.99-44.99h9.02Z"/>
    <path class="st1" d="M311.91,270.89h9.09l-6.32,35.71h-9.09l6.32-35.71ZM312.62,261.35c.52-2.96,3.29-5.29,6.51-5.29s5.09,2.32,4.58,5.29c-.52,2.96-3.29,5.29-6.45,5.29s-5.16-2.32-4.64-5.29h0Z"/>
    <path class="st1" d="M335.7,270.89l4.19,27.39,13.86-27.39h9.73l-19.53,35.71h-11.09l-6.83-35.71h9.67,0Z"/>
    <path class="st1" d="M377.72,307.18c-10.38,0-16.76-7.22-14.7-18.43,2-11.28,10.57-18.43,21.14-18.43s16.37,7.03,14.5,17.6c-.19,1.03-.45,2.19-.84,3.35h-26.1c-.58,5.41,2.51,8.44,7.09,8.44,3.87,0,6.38-1.93,7.86-4.32h9.73c-3.03,6.57-9.93,11.79-18.69,11.79h.01ZM372.69,285.78h17.02c.77-5.09-2.45-8.06-7.09-8.06s-8.44,2.96-9.93,8.06Z"/>
    <path class="st1" d="M421.54,289.32h-7.54l-3.03,17.27h-9.09l7.99-44.99h16.56c10.83,0,15.08,6.12,13.73,13.92-1.16,6.83-7.03,13.79-18.63,13.79h.01ZM422.45,282.23c5.09,0,7.8-2.71,8.51-6.7.71-4.12-1.03-6.77-6.19-6.77h-7.09l-2.38,13.47h7.15Z"/>
    <path class="st1" d="M449.51,258.9h9.09l-8.44,47.7h-9.09l8.44-47.7Z"/>
    <path class="st1" d="M479.42,270.31c5.74,0,9.22,2.71,10.76,5.67l.9-5.09h9.09l-6.32,35.71h-9.09l.97-5.22c-2.64,3.09-7.22,5.8-12.89,5.8-9.02,0-14.95-7.41-12.96-18.56,1.93-11.15,10.44-18.3,19.53-18.3h.01ZM480.39,278.24c-4.83,0-10.05,3.61-11.28,10.38-1.16,6.77,2.71,10.63,7.54,10.63s10.12-3.74,11.28-10.51c1.22-6.77-2.64-10.51-7.54-10.51h0Z"/>
    <path class="st1" d="M531.24,286.87c.97-5.74-1.61-8.83-6.38-8.83s-8.38,2.9-9.54,8.38l-3.55,20.17h-9.09l6.32-35.71h9.09l-.77,4.38c2.84-2.96,7.03-4.9,11.54-4.9,8.38,0,13.34,5.41,11.6,15.28l-3.74,20.95h-8.96l3.48-19.72h0Z"/>
  </g>
  <g class="st0">
    <g class="st0">
      <path class="st1" d="M277.6,322.65h1.97l2.11,6.79,4.51-6.79h1.99l-5.88,8.4-.91,5.09h-1.76l.91-5.09-2.94-8.4Z"/>
      <path class="st1" d="M292.31,336.31c-2.69,0-4.49-1.76-4.49-4.41,0-3.62,2.71-6.54,6.38-6.54,2.69,0,4.55,1.74,4.55,4.43,0,3.64-2.79,6.52-6.44,6.52ZM292.52,334.82c2.57,0,4.41-2.34,4.41-4.93,0-2.05-1.37-3.04-2.98-3.04-2.59,0-4.31,2.34-4.31,4.97,0,1.99,1.3,3,2.88,3Z"/>
      <path class="st1" d="M309.43,336.14h-1.76l.27-1.55c-.87,1.1-2.28,1.7-3.68,1.7-2.44,0-4.08-1.51-3.56-4.55l1.1-6.21h1.74l-1.04,5.98c-.37,2.15.6,3.25,2.38,3.25s3.25-1.12,3.62-3.41v.06l1.04-5.88h1.76l-1.88,10.6Z"/>
      <path class="st1" d="M314.17,336.14h-1.76l1.88-10.6h1.76l-.35,2.01c.83-1.35,2.13-2.21,3.81-2.21l-.33,1.82h-.46c-1.68,0-3.08.75-3.52,3.21l-1.03,5.77Z"/>
      <path class="st1" d="M330.75,330.51h-2.59l-1.01,5.63h-1.76l2.4-13.49h4.35c3.17,0,4.33,1.74,3.95,3.95-.35,2.05-2.01,3.91-5.34,3.91ZM331.01,329.12c2.01,0,3.02-1.01,3.29-2.52.29-1.57-.39-2.55-2.4-2.55h-2.59l-.89,5.07h2.59Z"/>
      <path class="st1" d="M341.16,336.31c-3.02,0-4.9-2.13-4.3-5.49.6-3.35,3.13-5.46,6.21-5.46s4.72,2.17,4.22,5.03c-.06.37-.14.68-.25,1.04h-8.47c-.27,2.17,1.03,3.39,2.86,3.39,1.59,0,2.73-.81,3.31-1.95h1.9c-.89,1.93-2.84,3.44-5.48,3.44ZM338.8,330.16h6.71c.39-2.17-.95-3.31-2.77-3.31s-3.41,1.18-3.95,3.31Z"/>
      <path class="st1" d="M350.36,336.14h-1.76l1.88-10.6h1.76l-.35,2.01c.83-1.35,2.13-2.21,3.81-2.21l-.33,1.82h-.46c-1.68,0-3.08.75-3.52,3.21l-1.03,5.77Z"/>
      <path class="st1" d="M359.55,336.31c-2.3,0-4.01-1.28-3.77-3.29h1.72c-.1,1.08.68,1.88,2.15,1.88,1.39,0,2.42-.56,2.42-1.59,0-2.17-5.36-1.45-5.36-4.91,0-1.82,1.68-3.04,4.04-3.04s3.95,1.34,3.7,3.33h-1.68c.14-1.16-.75-1.92-2.13-1.92-1.26,0-2.17.6-2.17,1.57,0,2.28,5.34,1.59,5.34,4.91,0,1.9-1.82,3.06-4.26,3.06Z"/>
      <path class="st1" d="M370.58,336.31c-2.69,0-4.49-1.76-4.49-4.41,0-3.62,2.71-6.54,6.38-6.54,2.69,0,4.55,1.74,4.55,4.43,0,3.64-2.79,6.52-6.44,6.52ZM370.79,334.82c2.57,0,4.41-2.34,4.41-4.93,0-2.05-1.37-3.04-2.98-3.04-2.59,0-4.31,2.34-4.31,4.97,0,1.99,1.3,3,2.88,3Z"/>
      <path class="st1" d="M387.12,330.14c.37-2.17-.6-3.27-2.38-3.27s-3.23,1.12-3.64,3.41v-.04l-1.04,5.9h-1.76l1.88-10.6h1.76l-.27,1.53c.89-1.12,2.28-1.72,3.71-1.72,2.44,0,4.06,1.51,3.52,4.55l-1.1,6.25h-1.74l1.06-6Z"/>
      <path class="st1" d="M396.97,325.36c1.97,0,3.13,1.01,3.56,2.11l.35-1.93h1.78l-1.88,10.6h-1.78l.37-1.97c-.85,1.14-2.4,2.15-4.35,2.15-2.82,0-4.64-2.22-4.06-5.51.58-3.31,3.15-5.44,6.02-5.44ZM397.05,326.89c-1.94,0-3.85,1.41-4.28,3.91-.45,2.5.95,3.97,2.88,3.97s3.85-1.45,4.3-3.95c.44-2.46-.97-3.93-2.9-3.93Z"/>
      <path class="st1" d="M406.3,321.82h1.76l-2.53,14.32h-1.76l2.53-14.32Z"/>
      <path class="st1" d="M416.69,322.65h7.6l-.25,1.37h-5.84l-.81,4.62h4.76l-.25,1.37h-4.76l-1.08,6.11h-1.76l2.4-13.49Z"/>
      <path class="st1" d="M425.92,325.54h1.76l-1.88,10.6h-1.76l1.88-10.6ZM426.15,322.62c.12-.68.74-1.2,1.39-1.2s1.08.52.97,1.2c-.12.68-.74,1.2-1.39,1.2s-1.08-.52-.97-1.2Z"/>
      <path class="st1" d="M437.62,330.14c.37-2.17-.6-3.27-2.38-3.27s-3.23,1.12-3.64,3.41v-.04l-1.04,5.9h-1.76l1.88-10.6h1.76l-.27,1.53c.89-1.12,2.28-1.72,3.71-1.72,2.44,0,4.06,1.51,3.52,4.55l-1.1,6.25h-1.74l1.06-6Z"/>
      <path class="st1" d="M447.47,325.36c1.97,0,3.13,1.01,3.56,2.11l.35-1.93h1.78l-1.88,10.6h-1.78l.37-1.97c-.85,1.14-2.4,2.15-4.35,2.15-2.83,0-4.64-2.22-4.06-5.51.58-3.31,3.15-5.44,6.02-5.44ZM447.55,326.89c-1.93,0-3.85,1.41-4.28,3.91-.45,2.5.95,3.97,2.88,3.97s3.85-1.45,4.29-3.95c.45-2.46-.97-3.93-2.9-3.93Z"/>
      <path class="st1" d="M463.09,330.14c.37-2.17-.6-3.27-2.38-3.27s-3.23,1.12-3.64,3.41v-.04l-1.04,5.9h-1.76l1.88-10.6h1.76l-.27,1.53c.89-1.12,2.28-1.72,3.71-1.72,2.44,0,4.06,1.51,3.52,4.55l-1.1,6.25h-1.74l1.06-6Z"/>
      <path class="st1" d="M473.07,325.36c2.63,0,4.1,1.35,4.26,3.58h-1.9c-.14-1.28-1.06-2.09-2.63-2.09-1.93,0-3.62,1.37-4.06,3.97-.46,2.63.73,4,2.67,4,1.55,0,2.73-.75,3.35-2.09h1.9c-.91,2.11-2.88,3.58-5.51,3.58-3.02,0-4.82-2.13-4.22-5.49.6-3.33,3.13-5.46,6.15-5.46Z"/>
      <path class="st1" d="M482.96,336.31c-3.02,0-4.9-2.13-4.3-5.49.6-3.35,3.13-5.46,6.21-5.46s4.72,2.17,4.22,5.03c-.06.37-.14.68-.25,1.04h-8.47c-.27,2.17,1.03,3.39,2.86,3.39,1.59,0,2.73-.81,3.31-1.95h1.9c-.89,1.93-2.84,3.44-5.48,3.44ZM480.6,330.16h6.71c.39-2.17-.95-3.31-2.77-3.31s-3.41,1.18-3.95,3.31Z"/>
      <path class="st1" d="M504.67,333.14h-5.9l-1.61,3h-1.86l7.24-13.41h2.03l2.5,13.41h-1.86l-.54-3ZM503.18,324.88l-3.68,6.89h4.91l-1.24-6.89Z"/>
      <path class="st1" d="M516.82,325.36c2.86,0,4.66,2.13,4.08,5.44-.58,3.29-3.15,5.51-6,5.51-1.94,0-3.12-1.04-3.6-2.13l-1.22,6.98h-1.76l2.75-15.63h1.76l-.35,1.95c.85-1.12,2.42-2.13,4.33-2.13ZM516.2,326.89c-1.92,0-3.85,1.47-4.29,3.93-.45,2.5.99,3.95,2.9,3.95s3.85-1.47,4.3-3.97-.95-3.91-2.9-3.91Z"/>
      <path class="st1" d="M529.9,325.36c2.86,0,4.66,2.13,4.08,5.44-.58,3.29-3.15,5.51-6,5.51-1.93,0-3.12-1.04-3.6-2.13l-1.22,6.98h-1.76l2.75-15.63h1.76l-.35,1.95c.85-1.12,2.42-2.13,4.33-2.13ZM529.28,326.89c-1.92,0-3.85,1.47-4.29,3.93-.45,2.5.99,3.95,2.9,3.95s3.85-1.47,4.29-3.97c.45-2.5-.95-3.91-2.9-3.91Z"/>
    </g>
  </g>
</svg>