<?xml version="1.0" encoding="UTF-8"?>
<svg id="Layer_1" xmlns="http://www.w3.org/2000/svg" xmlns:xlink="http://www.w3.org/1999/xlink" version="1.1" viewBox="0 0 329.14 232.73">
  <!-- Generator: Adobe Illustrator 29.5.1, SVG Export Plug-In . SVG Version: 2.1.0 Build 141)  -->
  <defs>
    <style>
      .st0 {
        fill: url(#linear-gradient2);
      }

      .st1 {
        fill: url(#linear-gradient1);
      }

      .st2 {
        fill: url(#linear-gradient3);
      }

      .st3 {
        fill: url(#linear-gradient6);
      }

      .st4 {
        fill: url(#linear-gradient8);
      }

      .st5 {
        fill: url(#linear-gradient7);
      }

      .st6 {
        fill: url(#linear-gradient5);
      }

      .st7 {
        fill: url(#linear-gradient4);
      }

      .st8 {
        fill: url(#linear-gradient);
      }

      .st9 {
        isolation: isolate;
      }
    </style>
    <linearGradient id="linear-gradient" x1="322.17" y1="441.8" x2="162.23" y2="508.79" gradientTransform="translate(0 -362.56)" gradientUnits="userSpaceOnUse">
      <stop offset=".09" stop-color="#2b194c"/>
      <stop offset=".87" stop-color="#8062ef"/>
    </linearGradient>
    <linearGradient id="linear-gradient1" x1="294.44" y1="356.98" x2="117.6" y2="431.04" gradientTransform="translate(0 -362.56)" gradientUnits="userSpaceOnUse">
      <stop offset=".09" stop-color="#2b194c"/>
      <stop offset=".87" stop-color="#8062ef"/>
    </linearGradient>
    <linearGradient id="linear-gradient2" x1="297.06" y1="363.26" x2="120.23" y2="437.32" gradientTransform="translate(0 -362.56)" gradientUnits="userSpaceOnUse">
      <stop offset=".09" stop-color="#2b194c"/>
      <stop offset=".87" stop-color="#8062ef"/>
    </linearGradient>
    <linearGradient id="linear-gradient3" x1="302.51" y1="376.26" x2="125.68" y2="450.31" gradientTransform="translate(0 -362.56)" gradientUnits="userSpaceOnUse">
      <stop offset=".09" stop-color="#2b194c"/>
      <stop offset=".87" stop-color="#8062ef"/>
    </linearGradient>
    <linearGradient id="linear-gradient4" x1="309.35" y1="392.59" x2="132.52" y2="466.65" gradientTransform="translate(0 -362.56)" gradientUnits="userSpaceOnUse">
      <stop offset=".09" stop-color="#2b194c"/>
      <stop offset=".87" stop-color="#8062ef"/>
    </linearGradient>
    <linearGradient id="linear-gradient5" x1="312.1" y1="399.19" x2="135.27" y2="473.24" gradientTransform="translate(0 -362.56)" gradientUnits="userSpaceOnUse">
      <stop offset=".09" stop-color="#2b194c"/>
      <stop offset=".87" stop-color="#8062ef"/>
    </linearGradient>
    <linearGradient id="linear-gradient6" x1="317.51" y1="412.07" x2="140.68" y2="486.13" gradientTransform="translate(0 -362.56)" gradientUnits="userSpaceOnUse">
      <stop offset=".09" stop-color="#2b194c"/>
      <stop offset=".87" stop-color="#8062ef"/>
    </linearGradient>
    <linearGradient id="linear-gradient7" x1="324.77" y1="429.41" x2="147.94" y2="503.47" gradientTransform="translate(0 -362.56)" gradientUnits="userSpaceOnUse">
      <stop offset=".09" stop-color="#2b194c"/>
      <stop offset=".87" stop-color="#8062ef"/>
    </linearGradient>
    <linearGradient id="linear-gradient8" x1="330.53" y1="443.19" x2="153.7" y2="517.24" gradientTransform="translate(0 -362.56)" gradientUnits="userSpaceOnUse">
      <stop offset=".09" stop-color="#2b194c"/>
      <stop offset=".87" stop-color="#8062ef"/>
    </linearGradient>
  </defs>
  <path class="st8" d="M301.38,77c4.68,0,6.75,2.67,6.12,6.06-.47,2.86-2.57,4.62-4.36,5.18v.13c2.2.72,3.39,2.61,2.86,5.71-.66,3.74-3.8,6.5-8.6,6.5-4.52,0-7.53-2.26-6.88-7.06h4.27c-.25,1.98.78,3.39,3.14,3.39,2.2,0,3.61-1.38,3.92-3.2.44-2.57-1.04-3.52-4.3-3.52h-.91l.66-3.61h.91c2.57,0,4.55-.72,4.96-2.98.31-1.79-.57-2.86-2.57-2.86-2.13,0-3.33,1.38-3.74,2.83h-4.3c.97-4.24,4.43-6.56,8.82-6.56h0Z"/>
  <g>
    <path class="st1" d="M36.66,80.33l-6.7,38.09h14.82l-1.22,6.9h-23.91l7.99-44.99h9.02Z"/>
    <path class="st0" d="M55.54,89.61h9.09l-6.32,35.71h-9.09s6.32-35.71,6.32-35.71ZM56.25,80.07c.52-2.96,3.29-5.29,6.51-5.29s5.09,2.32,4.58,5.29c-.52,2.96-3.29,5.29-6.45,5.29s-5.16-2.32-4.64-5.29h0Z"/>
    <path class="st2" d="M79.33,89.61l4.19,27.39,13.86-27.39h9.73l-19.53,35.71h-11.09l-6.83-35.71h9.67Z"/>
    <path class="st7" d="M121.35,125.9c-10.38,0-16.76-7.22-14.7-18.43,2-11.28,10.57-18.43,21.14-18.43s16.37,7.03,14.5,17.6c-.19,1.03-.45,2.19-.84,3.35h-26.1c-.58,5.41,2.51,8.44,7.09,8.44,3.87,0,6.38-1.93,7.86-4.32h9.73c-3.03,6.57-9.93,11.79-18.69,11.79h.01,0ZM116.32,104.5h17.02c.77-5.09-2.45-8.06-7.09-8.06s-8.44,2.96-9.93,8.06Z"/>
    <path class="st6" d="M165.17,108.04h-7.54l-3.03,17.27h-9.09l7.99-44.99h16.56c10.83,0,15.08,6.12,13.73,13.92-1.16,6.83-7.03,13.79-18.63,13.79h0ZM166.08,100.95c5.09,0,7.8-2.71,8.51-6.7.71-4.12-1.03-6.77-6.19-6.77h-7.09l-2.38,13.47h7.15Z"/>
    <path class="st3" d="M193.14,77.62h9.09l-8.44,47.7h-9.09s8.44-47.7,8.44-47.7Z"/>
    <path class="st5" d="M223.05,89.03c5.74,0,9.22,2.71,10.76,5.67l.9-5.09h9.09l-6.32,35.71h-9.09l.97-5.22c-2.64,3.09-7.22,5.8-12.89,5.8-9.02,0-14.95-7.41-12.96-18.56,1.93-11.15,10.44-18.3,19.53-18.3h.01ZM224.02,96.96c-4.83,0-10.05,3.61-11.28,10.38-1.16,6.77,2.71,10.63,7.54,10.63s10.12-3.74,11.28-10.51c1.22-6.77-2.64-10.51-7.54-10.51h0Z"/>
    <path class="st4" d="M274.87,105.59c.97-5.74-1.61-8.83-6.38-8.83s-8.38,2.9-9.54,8.38l-3.55,20.17h-9.09l6.32-35.71h9.09l-.77,4.38c2.84-2.96,7.03-4.9,11.54-4.9,8.38,0,13.34,5.41,11.6,15.28l-3.74,20.95h-8.96l3.48-19.72h0Z"/>
  </g>
  <g class="st9">
    <g class="st9">
      <g class="st9">
        <path d="M21.23,141.37h1.97l2.11,6.79,4.51-6.79h1.99l-5.88,8.4-.91,5.09h-1.76l.91-5.09-2.94-8.4Z"/>
        <path d="M35.94,155.03c-2.69,0-4.49-1.76-4.49-4.41,0-3.62,2.71-6.54,6.38-6.54,2.69,0,4.55,1.74,4.55,4.43,0,3.64-2.79,6.52-6.44,6.52ZM36.15,153.54c2.57,0,4.41-2.34,4.41-4.93,0-2.05-1.37-3.04-2.98-3.04-2.59,0-4.31,2.34-4.31,4.97,0,1.99,1.3,3,2.88,3Z"/>
        <path d="M53.06,154.86h-1.76l.27-1.55c-.87,1.1-2.28,1.7-3.68,1.7-2.44,0-4.08-1.51-3.56-4.55l1.1-6.21h1.74l-1.04,5.98c-.37,2.15.6,3.25,2.38,3.25s3.25-1.12,3.62-3.41v.06l1.04-5.88h1.76l-1.88,10.6Z"/>
        <path d="M57.8,154.86h-1.76l1.88-10.6h1.76l-.35,2.01c.83-1.35,2.13-2.21,3.81-2.21l-.33,1.82h-.46c-1.68,0-3.08.75-3.52,3.21l-1.03,5.77Z"/>
        <path d="M74.38,149.23h-2.59l-1.01,5.63h-1.76l2.4-13.49h4.35c3.17,0,4.33,1.74,3.95,3.95-.35,2.05-2.01,3.91-5.34,3.91ZM74.64,147.84c2.01,0,3.02-1.01,3.29-2.52.29-1.57-.39-2.55-2.4-2.55h-2.59l-.89,5.07h2.59Z"/>
        <path d="M84.79,155.03c-3.02,0-4.9-2.13-4.3-5.49.6-3.35,3.13-5.46,6.21-5.46s4.72,2.17,4.22,5.03c-.06.37-.14.68-.25,1.04h-8.47c-.27,2.17,1.03,3.39,2.86,3.39,1.59,0,2.73-.81,3.31-1.95h1.9c-.89,1.93-2.84,3.44-5.48,3.44ZM82.43,148.88h6.71c.39-2.17-.95-3.31-2.77-3.31s-3.41,1.18-3.95,3.31Z"/>
        <path d="M93.99,154.86h-1.76l1.88-10.6h1.76l-.35,2.01c.83-1.35,2.13-2.21,3.81-2.21l-.33,1.82h-.46c-1.68,0-3.08.75-3.52,3.21l-1.03,5.77Z"/>
        <path d="M103.18,155.03c-2.3,0-4.01-1.28-3.77-3.29h1.72c-.1,1.08.68,1.88,2.15,1.88,1.39,0,2.42-.56,2.42-1.59,0-2.17-5.36-1.45-5.36-4.91,0-1.82,1.68-3.04,4.04-3.04s3.95,1.34,3.7,3.33h-1.68c.14-1.16-.75-1.92-2.13-1.92-1.26,0-2.17.6-2.17,1.57,0,2.28,5.34,1.59,5.34,4.91,0,1.9-1.82,3.06-4.26,3.06Z"/>
        <path d="M114.21,155.03c-2.69,0-4.49-1.76-4.49-4.41,0-3.62,2.71-6.54,6.38-6.54,2.69,0,4.55,1.74,4.55,4.43,0,3.64-2.79,6.52-6.44,6.52ZM114.42,153.54c2.57,0,4.41-2.34,4.41-4.93,0-2.05-1.37-3.04-2.98-3.04-2.59,0-4.31,2.34-4.31,4.97,0,1.99,1.3,3,2.88,3Z"/>
        <path d="M130.75,148.86c.37-2.17-.6-3.27-2.38-3.27s-3.23,1.12-3.64,3.41v-.04l-1.04,5.9h-1.76l1.88-10.6h1.76l-.27,1.53c.89-1.12,2.28-1.72,3.71-1.72,2.44,0,4.06,1.51,3.52,4.55l-1.1,6.25h-1.74l1.06-6Z"/>
        <path d="M140.6,144.08c1.97,0,3.13,1.01,3.56,2.11l.35-1.93h1.78l-1.88,10.6h-1.78l.37-1.97c-.85,1.14-2.4,2.15-4.35,2.15-2.82,0-4.64-2.22-4.06-5.51.58-3.31,3.15-5.44,6.02-5.44ZM140.68,145.61c-1.94,0-3.85,1.41-4.28,3.91-.45,2.5.95,3.97,2.88,3.97s3.85-1.45,4.3-3.95c.44-2.46-.97-3.93-2.9-3.93Z"/>
        <path d="M149.93,140.54h1.76l-2.53,14.32h-1.76l2.53-14.32Z"/>
        <path d="M160.32,141.37h7.6l-.25,1.37h-5.84l-.81,4.62h4.76l-.25,1.37h-4.76l-1.08,6.11h-1.76l2.4-13.49Z"/>
        <path d="M169.55,144.26h1.76l-1.88,10.6h-1.76l1.88-10.6ZM169.78,141.34c.12-.68.74-1.2,1.39-1.2s1.08.52.97,1.2c-.12.68-.74,1.2-1.39,1.2s-1.08-.52-.97-1.2Z"/>
        <path d="M181.25,148.86c.37-2.17-.6-3.27-2.38-3.27s-3.23,1.12-3.64,3.41v-.04l-1.04,5.9h-1.76l1.88-10.6h1.76l-.27,1.53c.89-1.12,2.28-1.72,3.71-1.72,2.44,0,4.06,1.51,3.52,4.55l-1.1,6.25h-1.74l1.06-6Z"/>
        <path d="M191.1,144.08c1.97,0,3.13,1.01,3.56,2.11l.35-1.93h1.78l-1.88,10.6h-1.78l.37-1.97c-.85,1.14-2.4,2.15-4.35,2.15-2.83,0-4.64-2.22-4.06-5.51.58-3.31,3.15-5.44,6.02-5.44ZM191.18,145.61c-1.93,0-3.85,1.41-4.28,3.91-.45,2.5.95,3.97,2.88,3.97s3.85-1.45,4.29-3.95c.45-2.46-.97-3.93-2.9-3.93Z"/>
        <path d="M206.72,148.86c.37-2.17-.6-3.27-2.38-3.27s-3.23,1.12-3.64,3.41v-.04l-1.04,5.9h-1.76l1.88-10.6h1.76l-.27,1.53c.89-1.12,2.28-1.72,3.71-1.72,2.44,0,4.06,1.51,3.52,4.55l-1.1,6.25h-1.74l1.06-6Z"/>
        <path d="M216.7,144.08c2.63,0,4.1,1.35,4.26,3.58h-1.9c-.14-1.28-1.06-2.09-2.63-2.09-1.93,0-3.62,1.37-4.06,3.97-.46,2.63.73,4,2.67,4,1.55,0,2.73-.75,3.35-2.09h1.9c-.91,2.11-2.88,3.58-5.51,3.58-3.02,0-4.82-2.13-4.22-5.49.6-3.33,3.13-5.46,6.15-5.46Z"/>
        <path d="M226.59,155.03c-3.02,0-4.9-2.13-4.3-5.49.6-3.35,3.13-5.46,6.21-5.46s4.72,2.17,4.22,5.03c-.06.37-.14.68-.25,1.04h-8.47c-.27,2.17,1.03,3.39,2.86,3.39,1.59,0,2.73-.81,3.31-1.95h1.9c-.89,1.93-2.84,3.44-5.48,3.44ZM224.23,148.88h6.71c.39-2.17-.95-3.31-2.77-3.31s-3.41,1.18-3.95,3.31Z"/>
        <path d="M248.3,151.86h-5.9l-1.61,3h-1.86l7.24-13.41h2.03l2.5,13.41h-1.86l-.54-3ZM246.81,143.6l-3.68,6.89h4.91l-1.24-6.89Z"/>
        <path d="M260.45,144.08c2.86,0,4.66,2.13,4.08,5.44-.58,3.29-3.15,5.51-6,5.51-1.94,0-3.12-1.04-3.6-2.13l-1.22,6.98h-1.76l2.75-15.63h1.76l-.35,1.95c.85-1.12,2.42-2.13,4.33-2.13ZM259.83,145.61c-1.92,0-3.85,1.47-4.29,3.93-.45,2.5.99,3.95,2.9,3.95s3.85-1.47,4.3-3.97-.95-3.91-2.9-3.91Z"/>
        <path d="M273.53,144.08c2.86,0,4.66,2.13,4.08,5.44-.58,3.29-3.15,5.51-6,5.51-1.93,0-3.12-1.04-3.6-2.13l-1.22,6.98h-1.76l2.75-15.63h1.76l-.35,1.95c.85-1.12,2.42-2.13,4.33-2.13ZM272.91,145.61c-1.92,0-3.85,1.47-4.29,3.93-.45,2.5.99,3.95,2.9,3.95s3.85-1.47,4.29-3.97c.45-2.5-.95-3.91-2.9-3.91Z"/>
      </g>
    </g>
  </g>
</svg>