<?xml version="1.0" encoding="UTF-8"?>
<svg width="200" height="200" viewBox="0 0 200 200" fill="none" xmlns="http://www.w3.org/2000/svg">
  <!-- Person -->
  <g transform="translate(60, 40)">
    <!-- Head -->
    <circle cx="40" cy="30" r="20" fill="#A78BFA"/>
    
    <!-- Body -->
    <path d="M20 60C20 48.9543 28.9543 40 40 40H40C51.0457 40 60 48.9543 60 60V100H20V60Z" fill="#A78BFA"/>
    
    <!-- Arms -->
    <path d="M20 70H0" stroke="#A78BFA" stroke-width="10" stroke-linecap="round"/>
    <path d="M60 70H80" stroke="#A78BFA" stroke-width="10" stroke-linecap="round"/>
  </g>
  
  <!-- Coin/Dollar -->
  <g transform="translate(80, 100)">
    <circle cx="20" cy="20" r="20" fill="#FEF3C7"/>
    <text x="12" y="28" font-family="Arial" font-size="24" font-weight="bold" fill="#000000">$</text>
  </g>
  
  <!-- Plant -->
  <g transform="translate(140, 80)">
    <path d="M0 40V60" stroke="#047857" stroke-width="4"/>
    <path d="M0 40C0 40 -10 20 0 0C10 20 0 40 0 40Z" fill="#047857"/>
    <path d="M0 30C0 30 10 15 0 0C-10 15 0 30 0 30Z" fill="#047857"/>
  </g>
  
  <!-- Decorative Dots -->
  <circle cx="40" cy="40" r="4" fill="#A78BFA"/>
  <circle cx="160" cy="160" r="4" fill="#A78BFA"/>
  <circle cx="40" cy="160" r="4" fill="#A78BFA"/>
  <circle cx="160" cy="40" r="4" fill="#A78BFA"/>
</svg>
